<?xml version="1.0" encoding="UTF-8" standalone="no"?>
<!-- Created with Inkscape (http://www.inkscape.org/) -->

<svg
   width="46.031075"
   height="28.673256"
   viewBox="0 0 12.179055 7.5864656"
   version="1.1"
   id="svg1"
   xml:space="preserve"
   xmlns="http://www.w3.org/2000/svg"
   xmlns:svg="http://www.w3.org/2000/svg"><defs
     id="defs1" /><g
     id="layer1"
     transform="translate(-0.26047248,-2.556767)"><g
       id="g165"
       transform="matrix(1.1278357,0,0,1.1278357,-2.7387693,-19.903077)"><path
         style="fill:#fec27b"
         d="m 4.2061041,25.969596 c -0.013962,-0.1948 0.0054,-0.283415 0.078782,-0.360593 0.7156891,-0.752688 0.7142383,-1.314962 0.090706,-1.708581 -0.2378173,-0.150128 -0.2674914,-0.386227 -0.046444,-0.285511 0.1539949,0.07016 0.5640882,0.01419 0.820025,-0.14106 0.088145,-0.05347 0.285762,-0.124993 0.4454849,-0.146271 C 6.1447128,23.2543 6.607769,22.657714 6.4386723,22.254108 6.3442373,22.028707 5.5613152,21.659635 5.017058,21.546154 4.5754916,21.454084 4.4399382,21.308265 4.4399382,21.094186 c 0,-0.35711 0.4879233,-0.437536 0.7939907,-0.122159 0.1397301,0.143982 0.3700973,0.343639 0.7617663,0.532929 1.024182,0.494979 1.3451964,0.09027 1.7368224,-0.973001 0.038616,-0.104842 0.1099063,0.14821 0.1119773,0.187187 0.00207,0.03898 -0.1166868,0.288091 -0.224604,0.539297 -0.2006459,0.467058 -0.4813334,0.699366 -0.8026292,0.703342 -0.1277713,0.0016 -0.1211767,0.140036 -0.1032709,0.493914 0.00818,0.161599 -0.046209,0.315996 -0.044827,0.368448 0.00194,0.07373 0.05482,0.01164 0.127102,-0.0264 0.051418,-0.02706 0.2340479,-0.05577 0.4438595,-0.07648 l 0.3996189,-0.01692 0.4192377,0.402787 c 0.080742,0.07757 0.3114742,0.215328 0.4735154,0.38281 0.1407151,0.145439 0.3117119,0.291715 0.4145109,0.431254 0.063346,0.08599 0.1601587,0.167567 0.2058599,0.259684 0.030331,0.06114 0.016614,0.148449 0.033603,0.166825 0.1319595,0.142739 -0.4637495,-0.503959 -0.6985445,-0.726102 -0.6950333,-0.657585 -0.8673472,-0.774691 -1.00621,-0.774691 -0.699378,0 -1.2586746,0.501825 -1.2586746,1.072035 0,0.509483 0.3568268,0.889216 0.793544,0.958896 0.1119342,0.01786 0.5452286,0.113316 0.6627551,0.140666 0.1175265,0.02735 0.3296519,-0.04193 0.4177968,-0.02892 0.1323816,0.01954 -0.270458,0.09192 -0.5945763,0.08547 -0.1601338,-0.0032 -0.3184845,-0.04617 -0.4684921,-0.0632 -0.3785563,-0.04299 -0.3360263,-0.04525 -0.1907868,0.337493 0.1118821,0.294831 0.2550545,0.419656 0.4143335,0.401388 0.090782,-0.01041 0.1626831,-0.07096 0.231301,-0.19917 0.057788,-0.107978 0.4849384,-0.284868 0.6251297,-0.280335 0.044072,0.0014 -0.015761,0.03769 -0.1329624,0.08058 -0.1172018,0.0429 -0.2742029,0.17498 -0.38462,0.2828 C 7.2621244,25.961073 6.8869615,25.944765 6.668779,25.508671 6.2306103,24.632877 5.5573118,24.523731 4.8506792,25.251764 4.5807311,25.529887 4.4597216,25.662033 4.3709026,25.905628 4.2293785,26.293771 4.22934,26.293786 4.2061041,25.969596 Z m 4.5295955,-5.348661 c -0.136238,-0.14565 -0.288631,-0.281117 -0.288631,-0.311757 0,-0.100612 -0.1351506,-0.208006 -0.2610223,-0.208006 -0.1984624,0 -0.1799071,0.101722 -0.3068861,0.324083 l -0.2280029,0.357495 0.034236,-0.313842 c -0.016455,-0.498957 0.6553999,-0.673273 0.8813367,-0.223887 0.047572,0.09462 0.1693737,0.283635 0.2898227,0.408507 0.120449,0.124872 0.1741598,0.232224 0.1573721,0.232224 -0.016788,0 -0.1419904,-0.119168 -0.2782283,-0.264817 z"
         id="path173" /><path
         style="fill:#feb66e"
         d="M 6.9915798,25.703892 C 6.8848724,25.617486 6.671831,25.165098 6.6717192,25.024677 c -4.22e-5,-0.05293 0.3206816,-0.05981 0.9156201,0.02983 0.2804024,0.04225 1.2689269,-0.305911 1.4688531,-0.492171 0.2479789,-0.231033 0.033049,-0.549041 -1.1777103,-1.590398 L 7.6162074,22.74636 7.2374285,22.783742 c -0.2083284,0.02056 -0.420848,0.05952 -0.4722658,0.08658 -0.072283,0.03804 -0.094057,0.02756 -0.095999,-0.04617 -0.00138,-0.05245 -0.0092,-0.227584 -0.017379,-0.389183 -0.017906,-0.353878 0.037706,-0.533804 0.165477,-0.535385 0.4256885,-0.0053 0.8728654,-0.656237 0.9607942,-1.398658 0.063895,-0.539495 0.479264,-0.654962 0.7123732,-0.19803 0.1583971,0.310484 1.1398206,0.994368 1.3964073,1.035398 0.1945076,0.0311 0.3106336,0.247868 0.3106336,0.361341 0,0.02828 0.07813,0.124885 0.173619,0.214682 0.113893,0.107103 0.133488,0.142048 0.05696,0.101581 -0.06416,-0.03393 -0.184358,-0.161622 -0.267106,-0.283763 C 9.9954697,21.487874 9.9500239,21.456703 9.6365486,21.372451 9.5054388,21.337213 9.2783582,21.189364 9.0489161,20.989852 8.5362654,20.544073 8.4839814,20.702259 8.9860051,21.180189 c 0.2483792,0.236459 0.3648624,0.392122 0.4050178,0.541248 0.031002,0.11513 0.092153,0.256665 0.1358918,0.31452 0.043739,0.05785 0.079234,0.16529 0.078879,0.238744 -1.895e-4,0.03919 0.070976,0.966516 0.055892,0.971032 -0.038526,0.01153 -0.205838,-1.018911 -0.3533034,-1.430121 -0.029241,-0.08154 -0.1069598,-0.211853 -0.1981418,-0.317385 -0.2619929,-0.303223 -0.6455226,-0.673842 -0.8280456,-0.673842 -0.124515,0 -0.1859967,0.06008 -0.2708811,0.132788 -0.085151,0.07294 -0.1936703,0.158901 -0.2965085,0.409369 -0.3088437,0.75221 -0.2721801,0.839658 0.7405526,1.766331 0.9587779,0.877302 1.0462494,0.891821 1.1057761,0.183541 l 0.00662,-0.841103 0.095456,0.846508 c 0.013788,0.612047 -0.298342,0.737254 -0.738453,0.331573 -0.1622713,-0.149576 -0.2507795,-0.200453 -0.2665279,-0.153208 -0.012968,0.0389 0.1237204,0.211338 0.303752,0.383187 0.4781889,0.456455 0.4972112,0.77067 -0.056372,0.947924 -0.3013842,0.0965 -0.2553216,0.129958 0.08092,0.08795 0.2467904,-0.03083 0.3173318,0.01971 0.5419577,0.139284 0.1433896,0.07633 0.4617421,0.215568 0.4179034,0.215374 -0.043839,-1.94e-4 -0.3512697,0.01 -0.4394145,-0.04841 -0.2167671,-0.143559 -0.3757648,-0.184503 -1.0772036,0.02703 -0.5966568,0.179938 -0.91891,0.266425 -0.91891,0.36526 0,0.16109 -0.3627202,0.212894 -0.5192825,0.08612 z m 3.3127332,-1.003294 c 0,-0.157019 -0.04353,-0.234045 -0.240395,-0.425376 L 9.8235226,24.041585 v -0.832449 c 0,-0.315699 -0.034779,-0.552776 -0.010734,-0.719012 0.042322,-0.292594 0.174884,-0.377989 0.3421874,-0.374061 0.03806,8.93e-4 0.292486,0.156455 0.233716,0.188595 -0.04397,0.02405 -0.275303,-0.05889 -0.304731,-0.03239 -0.1197664,0.107869 -0.084618,0.257126 -0.1397852,0.919847 l 0.00877,0.793076 0.2257782,0.251155 c 0.209362,0.232893 0.289326,0.65599 0.152296,0.65599 -0.01469,0 -0.02671,-0.08628 -0.02671,-0.191739 z"
         id="path172" /><path
         style="fill:#feab5a"
         d="m 10.899771,25.976257 c -0.191365,-0.38509 -0.646507,-0.714917 -0.9640661,-0.7011 -0.2069842,0.009 -0.2499851,-0.09522 -0.4512939,-0.200479 -0.2283858,-0.11942 -0.3061948,-0.134025 -0.5510451,-0.103433 -0.3350604,0.04186 -0.3855843,-0.03845 -0.084779,-0.134766 0.5535831,-0.177254 0.5750882,-0.489322 0.096899,-0.945777 -0.1800316,-0.171849 -0.31672,-0.364443 -0.303752,-0.403347 0.015748,-0.04725 0.1390791,0.0146 0.3013504,0.164204 0.2605076,0.240128 0.4372459,0.287389 0.5828059,0.141829 0.1440235,-0.144023 0.1358856,-1.524807 -0.00759,-1.728898 -0.044962,-0.06396 -0.1044168,-0.230481 -0.135291,-0.344704 -0.039737,-0.147013 -0.170939,-0.304635 -0.4177457,-0.539597 -0.5020237,-0.47793 -0.4108609,-0.654259 0.1017898,-0.20848 0.2294421,0.199512 0.4539308,0.357728 0.5850406,0.392966 0.3090494,0.08306 0.4183991,0.05766 0.5968611,0.304657 0.234963,0.325204 1.154126,0.883213 1.354106,0.819742 0.185124,-0.05876 0.970288,-0.717376 1.120578,-0.958838 0.173101,-0.278112 0.399971,-0.321325 0.569805,-0.210046 0.239531,0.156947 0.151454,0.517598 -0.186449,0.631232 -0.16008,0.05383 -0.797305,0.571514 -0.946611,0.764294 -0.105521,0.136246 -0.168941,0.208068 -0.01499,0.413209 0.299759,0.399411 0.684687,0.850209 0.75412,0.850209 0.108304,0 0.315038,0.260453 0.315038,0.381915 0,0.123586 -0.268805,0.390686 -0.380622,0.390686 -0.11684,0 -0.317167,-0.208364 -0.3804,-0.427309 C 12.317229,23.852449 11.720192,23.218704 10.97288,22.719773 10.132257,22.158544 10.13604,22.064171 9.9579655,22.242245 9.8258268,22.374384 9.8238886,22.37546 9.833891,23.193584 l 0.010368,0.848001 0.282945,0.184539 c 0.20723,0.135157 0.337373,0.455206 0.337373,0.57112 0,0.366705 0.333921,0.608396 0.790031,0.762011 0.169904,0.05722 0.341833,0.255201 0.363005,0.407386 0.01102,0.07922 -0.178408,0.123041 -0.184641,0.176661 -0.02835,0.243907 -0.407043,0.08683 -0.533201,-0.167045 z"
         id="path171" /><path
         style="fill:#fece96"
         d="M 3.8403556,26.617507 C 3.3382332,26.433953 3.4016884,26.152028 4.1059071,25.43769 4.9539287,24.577483 4.9590942,24.440319 4.1601874,23.996354 3.8814442,23.841451 3.4861826,23.663325 3.2818282,23.600518 2.7355712,23.432628 2.547561,23.181759 2.722718,22.854475 c 0.1738304,-0.324805 0.5252207,-0.281573 0.9306636,0.114502 0.2762621,0.269879 0.8147141,0.587832 0.9954916,0.587832 0.056756,0 0.219296,-0.05883 0.361199,-0.130742 0.141903,-0.07191 0.3865571,-0.147794 0.5436758,-0.168636 0.4879237,-0.06473 1.0033236,-0.642648 0.8578539,-0.961919 -0.086587,-0.190038 -1.0453331,-0.638357 -1.4718467,-0.688249 -0.5632411,-0.06589 -0.8142549,-0.511296 -0.4777719,-0.847779 0.2276414,-0.227642 0.4404989,-0.193894 0.793529,0.125812 0.6483989,0.587193 1.6059021,0.935338 1.9114475,0.694996 0.160407,-0.126176 0.4383877,-0.772567 0.4911056,-1.141972 0.088649,-0.621185 0.6671197,-0.713301 0.9571627,-0.15242 0.1063925,0.20574 0.7504487,0.803222 0.9604156,0.890964 0.092261,0.03855 0.2571126,0.108262 0.3663371,0.154905 0.1188612,0.05076 0.2513412,0.168371 0.3299852,0.29295 0.127193,0.201488 0.90892,0.748437 1.191587,0.833715 0.216869,0.06543 0.939776,-0.490892 1.224992,-0.942705 0.305756,-0.484348 0.920422,-0.305962 0.735223,0.213374 -0.04962,0.139146 -0.0836,0.165136 -0.395956,0.302879 -0.327971,0.144629 -0.907181,0.708545 -0.907181,0.883228 0,0.222404 0.532427,0.875584 0.845815,1.037643 0.301725,0.156028 0.368264,0.478158 0.144905,0.701517 -0.247792,0.247792 -0.491189,0.148508 -0.671812,-0.274036 -0.245213,-0.573646 -0.764567,-1.158051 -1.416803,-1.594264 -1.0597642,-0.708767 -1.03895,-0.716883 -1.03895,0.405113 v 0.796556 l 0.1902,0.1902 c 0.213783,0.213784 0.29059,0.377474 0.29059,0.619305 0,0.212563 0.334375,0.540636 0.728809,0.715074 0.347063,0.153488 0.488387,0.340633 0.4014,0.531549 -0.147688,0.324139 -0.513158,0.288584 -0.695014,-0.06761 C 10.70333,25.591484 10.276328,25.319862 9.8671004,25.319354 9.6736095,25.319114 9.5320629,25.285184 9.4228641,25.212864 9.2053597,25.068817 9.0878837,25.077576 8.419971,25.287648 7.9517763,25.434904 7.8000709,25.509565 7.6064923,25.688 7.2045556,26.058492 6.8927016,25.972562 6.5710911,25.402699 6.0408481,24.46316 5.1441959,24.722223 4.5292874,25.992622 4.2612144,26.546461 4.084493,26.706753 3.8403556,26.617507 Z M 4.3631268,25.90174 c 0.076229,-0.247823 0.2124205,-0.40814 0.4823686,-0.686263 0.7066326,-0.728033 1.4317695,-0.634438 1.8699382,0.241356 0.2197051,0.439137 0.5171639,0.495758 0.8576766,0.163256 0.4010693,-0.391634 1.5444322,-0.670641 1.8885285,-0.460846 0.1196622,0.07296 0.2694025,0.106706 0.4740662,0.106842 0.3380881,2.26e-4 0.5874211,0.142786 0.8761091,0.500927 0.418175,0.518782 0.442144,0.531066 0.643455,0.329756 0.187086,-0.187087 0.100016,-0.346003 -0.287301,-0.52437 -0.410073,-0.188846 -0.756813,-0.526592 -0.756813,-0.737181 0,-0.229467 -0.12993,-0.508174 -0.283952,-0.609093 -0.2327084,-0.152477 -0.268369,-0.332217 -0.225841,-1.138308 0.05519,-1.046086 0.089805,-1.062117 0.994417,-0.460539 0.83985,0.558511 1.425971,1.199775 1.611657,1.763285 0.09838,0.298563 0.306045,0.403309 0.505551,0.255001 0.214844,-0.159708 0.230207,-0.406373 0.03341,-0.536409 -0.459658,-0.303725 -1.063988,-1.061091 -1.011991,-1.268262 0.04074,-0.162309 0.858659,-0.871884 1.054628,-0.914926 0.329217,-0.07231 0.424507,-0.466332 0.145018,-0.599647 -0.193301,-0.0922 -0.384185,-0.0124 -0.470863,0.196859 -0.106898,0.258076 -0.993973,1.018629 -1.188082,1.018629 -0.232878,0 -1.193906,-0.606005 -1.347912,-0.849967 C 10.066908,21.437932 10.001685,21.388917 9.7260075,21.3152 9.4641271,21.245173 8.8017804,20.701272 8.6130807,20.401295 8.4243657,20.101293 8.2892416,19.989286 8.1431608,19.989286 c -0.2003645,0 -0.4030625,0.210446 -0.4030625,0.433242 0,0.375794 -0.364986,1.176117 -0.5892563,1.292091 -0.3643582,0.188417 -1.4805831,-0.218986 -1.9635674,-0.716668 -0.3060674,-0.315382 -0.7058654,-0.260875 -0.7058654,0.09624 0,0.214079 0.1355534,0.308061 0.5771198,0.40013 0.5442572,0.113481 1.3375471,0.534391 1.431982,0.759792 0.1690967,0.403606 -0.3406141,1.041664 -0.8906689,1.114943 -0.1597229,0.02128 -0.3625239,0.08244 -0.4506687,0.135903 -0.2559368,0.155252 -0.6504786,0.237144 -0.8044735,0.166979 -0.2210475,-0.100716 -0.1602703,0.07836 0.077547,0.228489 0.6235323,0.393619 0.5912881,0.958485 -0.124401,1.711173 -0.073384,0.07718 -0.084969,0.126914 -0.071007,0.321714 -0.00966,0.396246 0.047428,0.161943 0.1362875,-0.03157 z m 2.976313,-0.9056 C 7.2512948,24.97108 7.087594,24.93612 6.9756598,24.91844 6.7513309,24.88301 6.3948255,24.597542 6.2675588,24.351435 5.9114051,23.66271 6.5930638,22.80891 7.4990836,22.80891 c 0.2318575,0 1.6833854,1.352531 1.6833854,1.568575 0,0.357569 -1.266225,0.782604 -1.8430292,0.618652 z m 0.8284031,-0.122948 c 1.14055,-0.316716 1.1777293,-0.408486 0.4396118,-1.085099 -1.0065169,-0.922648 -0.9551408,-0.888905 -1.3051254,-0.85717 -0.8225149,0.07458 -1.2925154,0.907711 -0.8533603,1.512675 0.203082,0.279758 0.4035341,0.368759 1.2380837,0.549709 0.014897,0.0032 0.231253,-0.05082 0.4807902,-0.120115 z m 0.9351838,-1.145524 c -0.5911152,-0.484483 -1.4673083,-1.288274 -1.554845,-1.482396 -0.2222944,-0.492961 0.4303338,-1.593945 0.8138349,-1.41921 0.670035,0.305289 1.1698294,1.013165 1.2225009,1.826949 0.0033,0.05095 0.00497,0.189016 0.00497,0.240482 0,0.929095 -0.1483694,1.111279 -0.4864631,0.834175 z m 0.2913857,-0.08863 c 0.041898,-0.05048 0.067598,-0.30981 0.072794,-0.73454 0.010543,-0.861774 -0.125518,-1.184732 -0.7124888,-1.691178 -0.5455172,-0.470679 -0.6682707,-0.443934 -0.9294306,0.202498 -0.2288069,0.566351 -0.1687988,0.837351 0.2716101,1.226605 0.1122676,0.09923 0.4157061,0.381617 0.6743077,0.627531 0.501132,0.476547 0.5231829,0.489606 0.6232076,0.369084 z"
         id="path174" /></g></g></svg>
