<?xml version="1.0" encoding="UTF-8" standalone="no"?>
<!-- Created with Inkscape (http://www.inkscape.org/) -->

<svg
   width="3840"
   height="2160"
   viewBox="0 0 240 135"
   version="1.1"
   id="svg1"
   xml:space="preserve"
   xmlns="http://www.w3.org/2000/svg"
   xmlns:svg="http://www.w3.org/2000/svg"><defs
     id="defs1"><rect
       x="519.30109"
       y="629.87469"
       width="563.77087"
       height="1437.4572"
       id="rect3" /><rect
       x="519.30109"
       y="629.87469"
       width="563.77087"
       height="1437.4572"
       id="rect3-6" /><rect
       x="519.30109"
       y="629.87469"
       width="563.77087"
       height="1437.4572"
       id="rect3-6-5" /><rect
       x="519.30109"
       y="629.87469"
       width="563.77087"
       height="1437.4572"
       id="rect3-6-5-6" /><rect
       x="519.30109"
       y="629.87469"
       width="2210.5278"
       height="221.14738"
       id="rect3-6-2" /></defs><g
     id="layer1"><text
       xml:space="preserve"
       style="font-size:6.35px;font-family:sans-serif;-inkscape-font-specification:sans-serif;text-align:center;text-anchor:middle;fill:#ffffff;stroke-width:4.99999;stroke-linejoin:bevel;stroke-dashoffset:177.638"
       x="28.971209"
       y="8.8720779"
       id="text1"><tspan
         id="tspan1"
         style="fill:#000000;fill-opacity:1;stroke-width:5"
         x="28.971209"
         y="8.8720779">Input Overview</tspan></text><text
       xml:space="preserve"
       style="font-size:4px;font-family:sans-serif;-inkscape-font-specification:sans-serif;text-align:center;text-anchor:middle;fill:#ffffff;stroke-width:4.99999;stroke-linejoin:bevel;stroke-dashoffset:177.638"
       x="224.69084"
       y="82.707031"
       id="text1-5"><tspan
         id="tspan1-6"
         style="font-size:4px;fill:#000000;fill-opacity:1;stroke-width:5"
         x="224.69084"
         y="82.707031">Output</tspan></text><g
       id="path2-7-8"><path
         style="color:#000000;fill:#246be8;stroke-linejoin:bevel;stroke-dashoffset:177.638;-inkscape-stroke:none"
         d="m 12.677734,12.074219 v 29.49414 c 0,2.104608 0.938756,3.119535 1.882813,3.492188 0.944057,0.372653 1.859375,0.169922 1.859375,0.169922 l -0.07227,0.0078 h 6.960938 v -0.708984 h -6.960938 l -0.07227,0.0078 c 0,0 -0.741142,0.147051 -1.455078,-0.134765 -0.713937,-0.281816 -1.433594,-0.924516 -1.433594,-2.833985 v -29.49414 z"
         id="path16" /><g
         id="g14"><path
           style="color:#000000;fill:#246be8;fill-rule:evenodd;-inkscape-stroke:none"
           d="m 13.031741,11.010593 c 0.586771,0 1.062992,0.476221 1.062992,1.062992 0,0.586771 -0.476221,1.062992 -1.062992,1.062992 -0.586771,0 -1.062992,-0.488977 -1.062992,-1.062992 0,-0.586771 0.476221,-1.062992 1.062992,-1.062992 z"
           id="path15" /><path
           style="color:#000000;fill:#246be8;fill-rule:evenodd;-inkscape-stroke:none"
           d="m 22.245152,44.884351 c 0,-0.586771 0.476221,-1.062992 1.062992,-1.062992 0.586771,0 1.062992,0.476221 1.062992,1.062992 0,0.586771 -0.488977,1.062992 -1.062992,1.062992 -0.586771,0 -1.062992,-0.476221 -1.062992,-1.062992 z"
           id="path14" /></g></g><g
       id="path2-7-8-7"><path
         style="color:#000000;fill:#246be8;stroke-linejoin:bevel;stroke-dashoffset:177.638;-inkscape-stroke:none"
         d="m 66.230469,44.113281 v 0.707031 h 4.099609 v -0.707031 z"
         id="path46" /><g
         id="g44"><path
           style="color:#000000;fill:#246be8;fill-rule:evenodd;-inkscape-stroke:none"
           d="m 65.16758,44.466871 c 0,-0.586771 0.476221,-1.062992 1.062992,-1.062992 0.586771,0 1.062992,0.476221 1.062992,1.062992 0,0.586771 -0.488977,1.062992 -1.062992,1.062992 -0.586771,0 -1.062992,-0.476221 -1.062992,-1.062992 z"
           id="path45" /><path
           style="color:#000000;fill:#246be8;fill-rule:evenodd;-inkscape-stroke:none"
           d="m 69.267117,44.466871 c 0,-0.586771 0.476221,-1.062992 1.062992,-1.062992 0.586771,0 1.062992,0.476221 1.062992,1.062992 0,0.586771 -0.488977,1.062992 -1.062992,1.062992 -0.586771,0 -1.062992,-0.476221 -1.062992,-1.062992 z"
           id="path44" /></g></g><g
       id="path2-7-8-7-1"><path
         style="color:#000000;fill:#246be8;stroke-linejoin:bevel;stroke-dashoffset:177.638;-inkscape-stroke:none"
         d="m 13.03125,22.537109 v 0.708985 h 17.150391 v -0.708985 z"
         id="path19" /><g
         id="g17"><path
           style="color:#000000;fill:#246be8;fill-rule:evenodd;-inkscape-stroke:none"
           d="m 11.968749,22.891635 c 0,-0.586771 0.476221,-1.062992 1.062992,-1.062992 0.586771,0 1.062992,0.476221 1.062992,1.062992 0,0.586771 -0.488977,1.062992 -1.062992,1.062992 -0.586771,0 -1.062992,-0.476221 -1.062992,-1.062992 z"
           id="path18" /><path
           style="color:#000000;fill:#246be8;fill-rule:evenodd;-inkscape-stroke:none"
           d="m 29.118644,22.891635 c 0,-0.586771 0.476221,-1.062992 1.062992,-1.062992 0.586771,0 1.062992,0.476221 1.062992,1.062992 0,0.586771 -0.488977,1.062992 -1.062992,1.062992 -0.586771,0 -1.062992,-0.476221 -1.062992,-1.062992 z"
           id="path17" /></g></g><g
       id="path2-7-8-7-6"><path
         style="color:#000000;fill:#246be8;stroke-linejoin:bevel;stroke-dashoffset:177.638;-inkscape-stroke:none"
         d="m 28.763672,50.923828 v 75.718752 h 0.708984 V 50.923828 Z"
         id="path40" /><g
         id="g38"><path
           style="color:#000000;fill:#246be8;fill-rule:evenodd;-inkscape-stroke:none"
           d="m 29.118644,49.861318 c 0.586771,0 1.062992,0.476221 1.062992,1.062992 0,0.586771 -0.476221,1.062992 -1.062992,1.062992 -0.586771,0 -1.062992,-0.488977 -1.062992,-1.062992 0,-0.586771 0.476221,-1.062992 1.062992,-1.062992 z"
           id="path39" /><path
           style="color:#000000;fill:#246be8;fill-rule:evenodd;-inkscape-stroke:none"
           d="m 29.118644,125.57952 c 0.586771,0 1.062992,0.47622 1.062992,1.06299 0,0.58677 -0.476221,1.06299 -1.062992,1.06299 -0.586771,0 -1.062992,-0.48897 -1.062992,-1.06299 0,-0.58677 0.476221,-1.06299 1.062992,-1.06299 z"
           id="path38" /></g></g><g
       id="path2-7-8-7-5"><path
         style="color:#000000;fill:#246be8;stroke-linejoin:bevel;stroke-dashoffset:177.638;-inkscape-stroke:none"
         d="m 105.05078,44.03125 v 0.708984 h 5.32031 V 44.03125 Z"
         id="path43" /><g
         id="g41"><path
           style="color:#000000;fill:#246be8;fill-rule:evenodd;-inkscape-stroke:none"
           d="m 103.98685,44.385326 c 0,-0.586771 0.47622,-1.062992 1.06299,-1.062992 0.58677,0 1.06299,0.476221 1.06299,1.062992 0,0.586771 -0.48897,1.062992 -1.06299,1.062992 -0.58677,0 -1.06299,-0.476221 -1.06299,-1.062992 z"
           id="path42" /><path
           style="color:#000000;fill:#246be8;fill-rule:evenodd;-inkscape-stroke:none"
           d="m 109.30818,44.385326 c 0,-0.586771 0.47622,-1.062992 1.06299,-1.062992 0.58677,0 1.06299,0.476221 1.06299,1.062992 0,0.586771 -0.48897,1.062992 -1.06299,1.062992 -0.58677,0 -1.06299,-0.476221 -1.06299,-1.062992 z"
           id="path41" /></g></g><g
       id="path2-7-8-6"><path
         style="color:#000000;fill:#246be8;stroke-linejoin:bevel;stroke-dashoffset:177.638;-inkscape-stroke:none"
         d="m 215.61719,43.808594 v 0.708984 h 8.08203 v -0.708984 z"
         id="path28" /><g
         id="g26"><path
           style="color:#000000;fill:#246be8;fill-rule:evenodd;-inkscape-stroke:none"
           d="m 214.55335,44.162674 c 0,-0.586771 0.47622,-1.062992 1.06299,-1.062992 0.58677,0 1.06299,0.476221 1.06299,1.062992 0,0.586771 -0.48897,1.062992 -1.06299,1.062992 -0.58677,0 -1.06299,-0.476221 -1.06299,-1.062992 z"
           id="path27" /><path
           style="color:#000000;fill:#246be8;fill-rule:evenodd;-inkscape-stroke:none"
           d="m 222.63615,44.162674 c 0,-0.586771 0.47622,-1.062992 1.06299,-1.062992 0.58677,0 1.06299,0.476221 1.06299,1.062992 0,0.586771 -0.48897,1.062992 -1.06299,1.062992 -0.58677,0 -1.06299,-0.476221 -1.06299,-1.062992 z"
           id="path26" /></g></g><g
       id="path2-7-8-6-2"><path
         style="color:#000000;fill:#246be8;stroke-linejoin:bevel;stroke-dashoffset:177.638;-inkscape-stroke:none"
         d="m 55.738281,22.164062 v 0.707032 H 220.4707 c 1.3074,0 1.97661,0.696915 2.38477,1.433593 0.40654,0.733762 0.48957,1.468754 0.49023,1.47461 v 48.488281 h 0.70703 V 25.746094 l -0.002,-0.03711 c 0,0 -0.0899,-0.870366 -0.57617,-1.748047 -0.48628,-0.87768 -1.43165,-1.796874 -3.00391,-1.796875 z"
         id="path22" /><g
         id="g20"><path
           style="color:#000000;fill:#246be8;fill-rule:evenodd;-inkscape-stroke:none"
           d="m 54.674938,22.517661 c 0,-0.586771 0.476221,-1.062992 1.062992,-1.062992 0.586771,0 1.062992,0.476221 1.062992,1.062992 0,0.586771 -0.488977,1.062992 -1.062992,1.062992 -0.586771,0 -1.062992,-0.476221 -1.062992,-1.062992 z"
           id="path21" /><path
           style="color:#000000;fill:#246be8;fill-rule:evenodd;-inkscape-stroke:none"
           d="m 223.69914,73.205309 c 0.58677,0 1.06299,0.476221 1.06299,1.062992 0,0.586771 -0.47622,1.062992 -1.06299,1.062992 -0.58677,0 -1.06299,-0.488977 -1.06299,-1.062992 0,-0.586771 0.47622,-1.062992 1.06299,-1.062992 z"
           id="path20" /></g></g><rect
       style="fill:none;fill-opacity:1;stroke:#246be8;stroke-width:0.708661;stroke-linejoin:bevel;stroke-dasharray:none;stroke-opacity:1"
       id="rect2"
       width="42.922428"
       height="12.909993"
       x="23.308144"
       y="38.014317"
       ry="3.1414564" /><rect
       style="fill:none;fill-opacity:1;stroke:#246be8;stroke-width:0.708661;stroke-linejoin:bevel;stroke-dasharray:none;stroke-opacity:1"
       id="rect2-1"
       width="34.719727"
       height="12.914875"
       x="70.330109"
       y="38.009434"
       ry="3.1414564" /><rect
       style="fill:none;fill-opacity:1;stroke:#246be8;stroke-width:0.708661;stroke-linejoin:bevel;stroke-dasharray:none;stroke-opacity:1"
       id="rect2-1-7"
       width="35.417828"
       height="12.914875"
       x="110.37117"
       y="37.699375"
       ry="3.1414564" /><rect
       style="fill:none;fill-opacity:1;stroke:#246be8;stroke-width:0.708661;stroke-linejoin:bevel;stroke-dasharray:none;stroke-opacity:1"
       id="rect2-1-7-6"
       width="30.531122"
       height="12.914875"
       x="150.43333"
       y="37.981602"
       ry="3.1414564" /><rect
       style="fill:none;fill-opacity:1;stroke:#246be8;stroke-width:0.708661;stroke-linejoin:bevel;stroke-dasharray:none;stroke-opacity:1"
       id="rect2-1-7-7"
       width="30.007545"
       height="12.914875"
       x="185.6088"
       y="38.009434"
       ry="3.1414564" /><text
       xml:space="preserve"
       style="font-size:3.33333px;font-family:sans-serif;-inkscape-font-specification:sans-serif;fill:#000000;stroke-width:0.708663;stroke-linejoin:bevel"
       x="26.232874"
       y="45.410881"
       id="text2"><tspan
         id="tspan2"
         style="font-size:3.33333px;stroke-width:0.708661"
         x="26.232874"
         y="45.410881">Analysis-Specific Input</tspan></text><text
       xml:space="preserve"
       style="font-size:3.33333px;font-family:sans-serif;-inkscape-font-specification:sans-serif;fill:#000000;stroke-width:0.708663;stroke-linejoin:bevel"
       x="73.609329"
       y="45.397861"
       id="text2-0"><tspan
         id="tspan2-1"
         style="font-size:3.33333px;stroke-width:0.708661"
         x="73.609329"
         y="45.397861">Select Dataset(s)</tspan></text><rect
       style="fill:none;fill-opacity:1;stroke:#246be8;stroke-width:0.708661;stroke-linejoin:bevel;stroke-dasharray:none;stroke-opacity:1"
       id="rect2-1-70"
       width="25.644407"
       height="12.914875"
       x="30.093523"
       y="16.598791"
       ry="3.1414564" /><text
       xml:space="preserve"
       style="font-size:3.33333px;font-family:sans-serif;-inkscape-font-specification:sans-serif;fill:#000000;stroke-width:0.708663;stroke-linejoin:bevel"
       x="33.372746"
       y="23.987219"
       id="text2-0-2"><tspan
         id="tspan2-1-1"
         style="font-size:3.33333px;stroke-width:0.708661"
         x="33.372746"
         y="23.987219">Analysis ID</tspan></text><text
       xml:space="preserve"
       style="font-size:3.33333px;font-family:sans-serif;-inkscape-font-specification:sans-serif;fill:#000000;stroke-width:0.708663;stroke-linejoin:bevel"
       x="113.5704"
       y="45.397861"
       id="text2-0-1"><tspan
         id="tspan2-1-0"
         style="font-size:3.33333px;stroke-width:0.708661"
         x="113.5704"
         y="45.397861">Other Parameters</tspan></text><text
       xml:space="preserve"
       style="font-size:3.33333px;font-family:sans-serif;-inkscape-font-specification:sans-serif;fill:#000000;stroke-width:0.708663;stroke-linejoin:bevel"
       x="153.97679"
       y="45.323643"
       id="text2-0-1-2"><tspan
         id="tspan2-1-0-3"
         style="font-size:3.33333px;stroke-width:0.708661"
         x="153.97679"
         y="45.323643">Review Inputs</tspan></text><text
       xml:space="preserve"
       style="font-size:3.33333px;font-family:sans-serif;-inkscape-font-specification:sans-serif;fill:#000000;stroke-width:0.708663;stroke-linejoin:bevel"
       x="189.7764"
       y="45.397861"
       id="text2-0-1-2-7"><tspan
         id="tspan2-1-0-3-8"
         style="font-size:3.33333px;stroke-width:0.708661"
         x="189.7764"
         y="45.397861">Start Analysis</tspan></text><g
       id="path2-7-8-7-5-4"><path
         style="color:#000000;fill:#246be8;stroke-linejoin:bevel;stroke-dashoffset:177.638;-inkscape-stroke:none"
         d="m 145.78906,44.083984 v 0.708985 h 4.64453 v -0.708985 z"
         id="path49" /><g
         id="g47"><path
           style="color:#000000;fill:#246be8;fill-rule:evenodd;-inkscape-stroke:none"
           d="m 144.72601,44.439039 c 0,-0.586771 0.47622,-1.062992 1.06299,-1.062992 0.58677,0 1.06299,0.476221 1.06299,1.062992 0,0.586771 -0.48897,1.062992 -1.06299,1.062992 -0.58677,0 -1.06299,-0.476221 -1.06299,-1.062992 z"
           id="path48" /><path
           style="color:#000000;fill:#246be8;fill-rule:evenodd;-inkscape-stroke:none"
           d="m 149.37034,44.439039 c 0,-0.586771 0.47622,-1.062992 1.06299,-1.062992 0.58677,0 1.06299,0.476221 1.06299,1.062992 0,0.586771 -0.48897,1.062992 -1.06299,1.062992 -0.58677,0 -1.06299,-0.476221 -1.06299,-1.062992 z"
           id="path47" /></g></g><g
       id="path2-7-8-7-5-5"><path
         style="color:#000000;fill:#246be8;stroke-linejoin:bevel;stroke-dashoffset:177.638;-inkscape-stroke:none"
         d="m 181.12891,44.083984 v 0.708985 h 4.48046 v -0.708985 z"
         id="path25" /><g
         id="g23"><path
           style="color:#000000;fill:#246be8;fill-rule:evenodd;-inkscape-stroke:none"
           d="m 180.06537,44.43904 c 0,-0.586771 0.47622,-1.062992 1.06299,-1.062992 0.58677,0 1.06299,0.476221 1.06299,1.062992 0,0.586771 -0.48897,1.062992 -1.06299,1.062992 -0.58677,0 -1.06299,-0.476221 -1.06299,-1.062992 z"
           id="path24" /><path
           style="color:#000000;fill:#246be8;fill-rule:evenodd;-inkscape-stroke:none"
           d="m 184.54581,44.43904 c 0,-0.586771 0.47622,-1.062992 1.06299,-1.062992 0.58677,0 1.06299,0.476221 1.06299,1.062992 0,0.586771 -0.48897,1.062992 -1.06299,1.062992 -0.58677,0 -1.06299,-0.476221 -1.06299,-1.062992 z"
           id="path23" /></g></g><text
       xml:space="preserve"
       transform="matrix(0.0625,0,0,0.0625,-1.107098,13.878184)"
       id="text3"
       style="font-size:42.6667px;font-family:sans-serif;-inkscape-font-specification:sans-serif;white-space:pre;shape-inside:url(#rect3);display:inline;fill:none;fill-opacity:1;stroke:#246be8;stroke-width:11.3386;stroke-linejoin:bevel;stroke-dasharray:none;stroke-opacity:1"><tspan
         x="519.30078"
         y="668.80112"
         id="tspan7"><tspan
           style="font-style:italic;font-weight:bold;fill:#000000;stroke:none"
           id="tspan3">Single Gene&#10;</tspan></tspan><tspan
         x="519.30078"
         y="722.1345"
         id="tspan10"><tspan
           style="fill:#000000;stroke:none"
           id="tspan8">Input a gene symbol</tspan><tspan
           style="font-style:italic;font-weight:bold;fill:#000000;stroke:none"
           id="tspan9">&#10;</tspan></tspan><tspan
         x="519.30078"
         y="775.46787"
         id="tspan12"><tspan
           style="font-style:italic;font-weight:bold;fill:#000000;stroke:none"
           id="tspan11">&#10;</tspan></tspan><tspan
         x="519.30078"
         y="828.80124"
         id="tspan14"><tspan
           style="font-style:italic;font-weight:bold;fill:#000000;stroke:none"
           id="tspan13">Gene Ratio&#10;</tspan></tspan><tspan
         x="519.30078"
         y="882.13462"
         id="tspan16"><tspan
           style="fill:#000000;stroke:none"
           id="tspan15">Input two gene symbols </tspan></tspan><tspan
         x="519.30078"
         y="935.46799"
         id="tspan19"><tspan
           style="fill:#000000;stroke:none"
           id="tspan17">to calculate ratio</tspan><tspan
           style="font-style:italic;font-weight:bold;fill:#000000;stroke:none"
           id="tspan18">&#10;</tspan></tspan><tspan
         x="519.30078"
         y="988.80137"
         id="tspan22"><tspan
           style="font-style:italic;font-weight:bold;fill:#000000;stroke:none"
           id="tspan21">&#10;</tspan></tspan><tspan
         x="519.30078"
         y="1042.1347"
         id="tspan24"><tspan
           style="font-style:italic;font-weight:bold;fill:#000000;stroke:none"
           id="tspan23">Gene Set&#10;</tspan></tspan><tspan
         x="519.30078"
         y="1095.4681"
         id="tspan26"><tspan
           style="fill:#000000;stroke:none"
           id="tspan25">Select a built-in gene-set </tspan></tspan><tspan
         x="519.30078"
         y="1148.8015"
         id="tspan29"><tspan
           style="fill:#000000;stroke:none"
           id="tspan27">or input a gene set by </tspan></tspan><tspan
         x="519.30078"
         y="1202.1349"
         id="tspan32"><tspan
           style="fill:#000000;stroke:none"
           id="tspan30">gene names</tspan><tspan
           style="font-style:italic;font-weight:bold;fill:#000000;stroke:none"
           id="tspan31">&#10;</tspan></tspan><tspan
         x="519.30078"
         y="1255.4682"
         id="tspan34"><tspan
           style="font-style:italic;font-weight:bold;fill:#000000;stroke:none"
           id="tspan33">&#10;</tspan></tspan><tspan
         x="519.30078"
         y="1308.8016"
         id="tspan37"><tspan
           style="font-style:italic;font-weight:bold;fill:#000000;stroke:none"
           id="tspan35">Cluster Marker&#10;</tspan></tspan><tspan
         x="519.30078"
         y="1362.135"
         id="tspan39"><tspan
           style="fill:#000000;stroke:none"
           id="tspan38">Select example data or </tspan></tspan><tspan
         x="519.30078"
         y="1415.4684"
         id="tspan41"><tspan
           style="fill:#000000;stroke:none"
           id="tspan40">upload a marker file </tspan></tspan><tspan
         x="519.30078"
         y="1468.8017"
         id="tspan44"><tspan
           style="fill:#000000;stroke:none"
           id="tspan42">through upload or URL</tspan><tspan
           style="font-style:italic;font-weight:bold;fill:#000000;stroke:none"
           id="tspan43">&#10;</tspan></tspan><tspan
         x="519.30078"
         y="1522.1351"
         id="tspan96"><tspan
           style="font-style:italic;font-weight:bold;fill:#000000;stroke:none"
           id="tspan45">&#10;</tspan></tspan><tspan
         x="519.30078"
         y="1575.4685"
         id="tspan98"><tspan
           style="font-style:italic;font-weight:bold;fill:#000000;stroke:none"
           id="tspan97">Co-Expression Network&#10;</tspan></tspan><tspan
         x="519.30078"
         y="1628.8019"
         id="tspan100"><tspan
           style="fill:#000000;stroke:none"
           id="tspan99">Select example data or </tspan></tspan><tspan
         x="519.30078"
         y="1682.1352"
         id="tspan102"><tspan
           style="fill:#000000;stroke:none"
           id="tspan101">upload a co-expression </tspan></tspan><tspan
         x="519.30078"
         y="1735.4686"
         id="tspan104"><tspan
           style="fill:#000000;stroke:none"
           id="tspan103">network file through </tspan></tspan><tspan
         x="519.30078"
         y="1788.802"
         id="tspan106"><tspan
           style="fill:#000000;stroke:none"
           id="tspan105">upload or URL</tspan></tspan></text><text
       xml:space="preserve"
       transform="matrix(0.0625,0,0,0.0625,44.768098,13.878184)"
       id="text3-9"
       style="font-size:42.6667px;font-family:sans-serif;-inkscape-font-specification:sans-serif;white-space:pre;shape-inside:url(#rect3-6);display:inline;fill:none;fill-opacity:1;stroke:#246be8;stroke-width:11.3386;stroke-linejoin:bevel;stroke-dasharray:none;stroke-opacity:1"><tspan
         x="519.30078"
         y="668.80112"
         id="tspan108"><tspan
           style="fill:#000000;stroke:none"
           id="tspan107">Select up to 5 datasets </tspan></tspan><tspan
         x="519.30078"
         y="722.1345"
         id="tspan110"><tspan
           style="fill:#000000;stroke:none"
           id="tspan109">for Single Gene analysis,&#10;</tspan></tspan><tspan
         x="519.30078"
         y="775.46787"
         id="tspan112"><tspan
           style="fill:#000000;stroke:none"
           id="tspan111">Gene Ratio analysis, </tspan></tspan><tspan
         x="519.30078"
         y="828.80124"
         id="tspan114"><tspan
           style="fill:#000000;stroke:none"
           id="tspan113">GeneSet Analysis;&#10;</tspan></tspan><tspan
         x="519.30078"
         y="882.13462"
         id="tspan116"><tspan
           style="fill:#000000;stroke:none"
           id="tspan115">&#10;</tspan></tspan><tspan
         x="519.30078"
         y="935.46799"
         id="tspan118"><tspan
           style="fill:#000000;stroke:none"
           id="tspan117">Select One dataset &#10;</tspan></tspan><tspan
         x="519.30078"
         y="988.80137"
         id="tspan120"><tspan
           style="fill:#000000;stroke:none"
           id="tspan119">for Cluster Marker and </tspan></tspan><tspan
         x="519.30078"
         y="1042.1347"
         id="tspan122"><tspan
           style="fill:#000000;stroke:none"
           id="tspan121">Co-Expression Network </tspan></tspan><tspan
         x="519.30078"
         y="1095.4681"
         id="tspan124"><tspan
           style="fill:#000000;stroke:none"
           id="tspan123">analysis.</tspan></tspan></text><text
       xml:space="preserve"
       transform="matrix(0.0625,0,0,0.0625,26.616769,-21.80346)"
       id="text3-9-4"
       style="font-size:42.6667px;font-family:sans-serif;-inkscape-font-specification:sans-serif;white-space:pre;shape-inside:url(#rect3-6-2);display:inline;fill:none;fill-opacity:1;stroke:#246be8;stroke-width:11.3386;stroke-linejoin:bevel;stroke-dasharray:none;stroke-opacity:1"><tspan
         x="519.30078"
         y="668.80112"
         id="tspan126"><tspan
           dx="0 0 0 0 0 0 0 0 0 0 0 0 0 0 0 0 0 0 0 0 0 0 0 0 0 0 0 0 0 0 0 0 0 0 0 0 0 0 0 0 0 0 0 0 0 0 0 0 0 0 0 0 0 0 0 0 0 0 0 0 0 0.00011062622 0 0 0 0 0 0 0 0 0 0 0 0 0 0 0 0 0 -0.00010108948 0.00011062622"
           style="fill:#000000;stroke:none"
           id="tspan125">Each Analysis will be assigned with an analysis ID, which is shown on the top of each page.&#10;</tspan></tspan><tspan
         x="519.30078"
         y="722.1345"
         id="tspan128"><tspan
           style="fill:#000000;stroke:none"
           id="tspan127"> &#10;</tspan></tspan><tspan
         x="519.30078"
         y="775.46787"
         id="tspan130"><tspan
           dx="0 0 0 0 0 0 0 0 0 0 0 0 0 0 0 0 0 0 0 0 0 0 0 0 0 0 0 0 0 0 0 0 0 0 0 0 0 0 0 0 0 0 0 0 0 0 0 0 0 0 0 0 0 0 0 0 0 0 0 0 0 0.00011062622 0 0 0 0 0 0 0 0 0.00010299683 0 0 0 0 0 0 0 0 0.00011062622 0 0 0 0 -0.00010108948 0.00011062622 0 -0.00010108948 0 0 0.00010108948"
           style="fill:#000000;stroke:none"
           id="tspan129">Record the analysis ID to retrieve or share previous results (each analysis is valid for 24 hours)</tspan></tspan></text><text
       xml:space="preserve"
       transform="matrix(0.0625,0,0,0.0625,85.140771,13.701018)"
       id="text3-9-9"
       style="font-size:42.6667px;font-family:sans-serif;-inkscape-font-specification:sans-serif;white-space:pre;shape-inside:url(#rect3-6-5);display:inline;fill:none;fill-opacity:1;stroke:#246be8;stroke-width:11.3386;stroke-linejoin:bevel;stroke-dasharray:none;stroke-opacity:1"><tspan
         x="519.30078"
         y="668.80112"
         id="tspan132"><tspan
           style="fill:#000000;stroke:none"
           id="tspan131">Select a cutpoint </tspan></tspan><tspan
         x="519.30078"
         y="722.1345"
         id="tspan134"><tspan
           style="fill:#000000;stroke:none"
           id="tspan133">determination method to </tspan></tspan><tspan
         x="519.30078"
         y="775.46787"
         id="tspan136"><tspan
           style="fill:#000000;stroke:none"
           id="tspan135">separate high/low risj </tspan></tspan><tspan
         x="519.30078"
         y="828.80124"
         id="tspan138"><tspan
           style="fill:#000000;stroke:none"
           id="tspan137">groups;&#10;</tspan></tspan><tspan
         x="519.30078"
         y="882.13462"
         id="tspan140"><tspan
           style="fill:#000000;stroke:none"
           id="tspan139">Select the result type; </tspan></tspan><tspan
         x="519.30078"
         y="935.46799"
         id="tspan142"><tspan
           style="fill:#000000;stroke:none"
           id="tspan141">Overall survival or Event-</tspan></tspan><tspan
         x="519.30078"
         y="988.80137"
         id="tspan144"><tspan
           style="fill:#000000;stroke:none"
           id="tspan143">Free survival;&#10;</tspan></tspan><tspan
         x="519.30078"
         y="1042.1347"
         id="tspan146"><tspan
           style="fill:#000000;stroke:none"
           id="tspan145">Select the Signature cell </tspan></tspan><tspan
         x="519.30078"
         y="1095.4681"
         id="tspan148"><tspan
           style="fill:#000000;stroke:none"
           id="tspan147">type sets to calculate the </tspan></tspan><tspan
         x="519.30078"
         y="1148.8015"
         id="tspan150"><tspan
           style="fill:#000000;stroke:none"
           id="tspan149">correlation.</tspan></tspan></text><text
       xml:space="preserve"
       transform="matrix(0.0625,0,0,0.0625,125.39733,13.701018)"
       id="text3-9-9-3"
       style="font-size:42.6667px;font-family:sans-serif;-inkscape-font-specification:sans-serif;white-space:pre;shape-inside:url(#rect3-6-5-6);display:inline;fill:none;fill-opacity:1;stroke:#246be8;stroke-width:11.3386;stroke-linejoin:bevel;stroke-dasharray:none;stroke-opacity:1"><tspan
         x="519.30078"
         y="668.80112"
         id="tspan152"><tspan
           style="fill:#000000;stroke:none"
           id="tspan151">Review all input </tspan></tspan><tspan
         x="519.30078"
         y="722.1345"
         id="tspan154"><tspan
           style="fill:#000000;stroke:none"
           id="tspan153">parameters and submit </tspan></tspan><tspan
         x="519.30078"
         y="775.46787"
         id="tspan156"><tspan
           style="fill:#000000;stroke:none"
           id="tspan155">the task</tspan></tspan></text><g
       id="path2-7-8-7-6-9"><path
         style="color:#000000;fill:#246be8;stroke-linejoin:bevel;stroke-dashoffset:177.638;-inkscape-stroke:none"
         d="m 75.019531,50.923828 v 75.718752 h 0.708985 V 50.923828 Z"
         id="path37" /><g
         id="g35"><path
           style="color:#000000;fill:#246be8;fill-rule:evenodd;-inkscape-stroke:none"
           d="m 75.374697,49.861319 c 0.586771,0 1.062992,0.476221 1.062992,1.062992 0,0.586771 -0.476221,1.062992 -1.062992,1.062992 -0.586771,0 -1.062992,-0.488977 -1.062992,-1.062992 0,-0.586771 0.476221,-1.062992 1.062992,-1.062992 z"
           id="path36" /><path
           style="color:#000000;fill:#246be8;fill-rule:evenodd;-inkscape-stroke:none"
           d="m 75.374697,125.57952 c 0.586771,0 1.062992,0.47622 1.062992,1.06299 0,0.58677 -0.476221,1.06299 -1.062992,1.06299 -0.586771,0 -1.062992,-0.48897 -1.062992,-1.06299 0,-0.58677 0.476221,-1.06299 1.062992,-1.06299 z"
           id="path35" /></g></g><g
       id="path2-7-8-7-6-0"><path
         style="color:#000000;fill:#246be8;stroke-linejoin:bevel;stroke-dashoffset:177.638;-inkscape-stroke:none"
         d="m 115.42773,50.923828 v 75.718752 h 0.70899 V 50.923828 Z"
         id="path34" /><g
         id="g32"><path
           style="color:#000000;fill:#246be8;fill-rule:evenodd;-inkscape-stroke:none"
           d="m 115.78145,49.86132 c 0.58677,0 1.06299,0.476221 1.06299,1.062992 0,0.586771 -0.47622,1.062992 -1.06299,1.062992 -0.58677,0 -1.06299,-0.488977 -1.06299,-1.062992 0,-0.586771 0.47622,-1.062992 1.06299,-1.062992 z"
           id="path33" /><path
           style="color:#000000;fill:#246be8;fill-rule:evenodd;-inkscape-stroke:none"
           d="m 115.78145,125.57952 c 0.58677,0 1.06299,0.47622 1.06299,1.06299 0,0.58677 -0.47622,1.06299 -1.06299,1.06299 -0.58677,0 -1.06299,-0.48897 -1.06299,-1.06299 0,-0.58677 0.47622,-1.06299 1.06299,-1.06299 z"
           id="path32" /></g></g><g
       id="path2-7-8-7-6-2"><path
         style="color:#000000;fill:#246be8;stroke-linejoin:bevel;stroke-dashoffset:177.638;-inkscape-stroke:none"
         d="m 155.83398,50.923828 v 75.718752 h 0.70899 V 50.923828 Z"
         id="path31" /><g
         id="g29"><path
           style="color:#000000;fill:#246be8;fill-rule:evenodd;-inkscape-stroke:none"
           d="m 156.1882,49.86132 c 0.58677,0 1.06299,0.476221 1.06299,1.062992 0,0.586771 -0.47622,1.062992 -1.06299,1.062992 -0.58677,0 -1.06299,-0.488977 -1.06299,-1.062992 0,-0.586771 0.47622,-1.062992 1.06299,-1.062992 z"
           id="path30" /><path
           style="color:#000000;fill:#246be8;fill-rule:evenodd;-inkscape-stroke:none"
           d="m 156.1882,125.57952 c 0.58677,0 1.06299,0.47622 1.06299,1.06299 0,0.58677 -0.47622,1.06299 -1.06299,1.06299 -0.58677,0 -1.06299,-0.48897 -1.06299,-1.06299 0,-0.58677 0.47622,-1.06299 1.06299,-1.06299 z"
           id="path29" /></g></g></g></svg>
