<?xml version="1.0" encoding="UTF-8" standalone="no"?>
<!-- Created with Inkscape (http://www.inkscape.org/) -->

<svg
   width="3840"
   height="2160"
   viewBox="0 0 240 135"
   version="1.1"
   id="svg1"
   xml:space="preserve"
   xmlns="http://www.w3.org/2000/svg"
   xmlns:svg="http://www.w3.org/2000/svg"><defs
     id="defs1" /><g
     id="layer1"><text
       xml:space="preserve"
       style="font-size:6.35px;font-family:sans-serif;-inkscape-font-specification:sans-serif;text-align:center;text-anchor:middle;fill:#ffffff;stroke-width:4.99999;stroke-linejoin:bevel;stroke-dashoffset:177.638"
       x="28.971209"
       y="8.8720779"
       id="text1"><tspan
         id="tspan1"
         style="fill:#000000;fill-opacity:1;stroke-width:5"
         x="28.971209"
         y="8.8720779">Output Overview</tspan></text><g
       id="path2-7-8"><path
         style="color:#000000;fill:#246be8;stroke-linejoin:bevel;stroke-dashoffset:177.638;-inkscape-stroke:none"
         d="m 26.882812,40.302734 v 19.720703 c 0,2.104608 0.936803,3.121488 1.88086,3.494141 0.944057,0.372653 1.861328,0.167969 1.861328,0.167969 l -0.07227,0.0078 h 2.84375 v -0.707031 h -2.84375 l -0.07422,0.0059 c 0,0 -0.741142,0.147051 -1.455079,-0.134765 -0.713936,-0.281816 -1.433593,-0.924516 -1.433593,-2.833985 V 40.302734 Z"
         id="path16" /><g
         id="g14"><path
           style="color:#000000;fill:#246be8;fill-rule:evenodd;-inkscape-stroke:none"
           d="m 27.236252,39.239443 c 0.586771,0 1.062992,0.476221 1.062992,1.062992 0,0.586771 -0.476221,1.062992 -1.062992,1.062992 -0.586771,0 -1.062992,-0.488977 -1.062992,-1.062992 0,-0.586771 0.476221,-1.062992 1.062992,-1.062992 z"
           id="path15" /><path
           style="color:#000000;fill:#246be8;fill-rule:evenodd;-inkscape-stroke:none"
           d="m 32.334282,63.339782 c 0,-0.586771 0.476221,-1.062992 1.062992,-1.062992 0.586771,0 1.062992,0.476221 1.062992,1.062992 0,0.586771 -0.488977,1.062992 -1.062992,1.062992 -0.586771,0 -1.062992,-0.476221 -1.062992,-1.062992 z"
           id="path14" /></g></g><g
       id="path2-7-8-2"><path
         style="color:#000000;fill:#246be8;stroke-linejoin:bevel;stroke-dashoffset:177.638;-inkscape-stroke:none"
         d="m 26.882812,13.076172 v 14.310547 h 0.707032 V 13.076172 Z"
         id="path13" /><g
         id="g11"><path
           style="color:#000000;fill:#246be8;fill-rule:evenodd;-inkscape-stroke:none"
           d="m 27.236252,12.013489 c 0.586771,0 1.062992,0.476221 1.062992,1.062992 0,0.586771 -0.476221,1.062992 -1.062992,1.062992 -0.586771,0 -1.062992,-0.488977 -1.062992,-1.062992 0,-0.586771 0.476221,-1.062992 1.062992,-1.062992 z"
           id="path12" /><path
           style="color:#000000;fill:#246be8;fill-rule:evenodd;-inkscape-stroke:none"
           d="m 27.236252,26.32457 c 0.586771,0 1.062992,0.476221 1.062992,1.062992 0,0.586771 -0.476221,1.062992 -1.062992,1.062992 -0.586771,0 -1.062992,-0.488977 -1.062992,-1.062992 0,-0.586771 0.476221,-1.062992 1.062992,-1.062992 z"
           id="path11" /></g></g><g
       id="path2-7-8-7"><path
         style="color:#000000;fill:#246be8;stroke-linejoin:bevel;stroke-dashoffset:177.638;-inkscape-stroke:none"
         d="m 68.117187,62.986328 v 0.707031 h 5.597657 v -0.707031 z"
         id="path19" /><g
         id="g17"><path
           style="color:#000000;fill:#246be8;fill-rule:evenodd;-inkscape-stroke:none"
           d="m 67.05401,63.339784 c 0,-0.586771 0.476221,-1.062992 1.062992,-1.062992 0.586771,0 1.062992,0.476221 1.062992,1.062992 0,0.586771 -0.488977,1.062992 -1.062992,1.062992 -0.586771,0 -1.062992,-0.476221 -1.062992,-1.062992 z"
           id="path18" /><path
           style="color:#000000;fill:#246be8;fill-rule:evenodd;-inkscape-stroke:none"
           d="m 72.65257,63.339784 c 0,-0.586771 0.476221,-1.062992 1.062992,-1.062992 0.586771,0 1.062992,0.476221 1.062992,1.062992 0,0.586771 -0.488977,1.062992 -1.062992,1.062992 -0.586771,0 -1.062992,-0.476221 -1.062992,-1.062992 z"
           id="path17" /></g></g><text
       xml:space="preserve"
       style="font-size:3.33333px;font-family:sans-serif;-inkscape-font-specification:sans-serif;text-align:start;text-anchor:start;white-space:pre;inline-size:91.4617;display:inline;fill:#000000;fill-opacity:1;stroke:none;stroke-width:0.11811;stroke-linejoin:bevel;stroke-dasharray:none;stroke-dashoffset:177.638;stroke-opacity:1"
       x="-19.86293"
       y="54.123718"
       id="text2-2-5-0"
       transform="translate(115.40099,-11.447482)"><tspan
         x="-19.86293"
         y="54.123718"
         id="tspan12">for <tspan
   style="font-style:italic;font-weight:bold"
   id="tspan7">Single Gene</tspan> / <tspan
   style="font-style:italic;font-weight:bold"
   id="tspan8">Gene Ratio</tspan> / <tspan
   style="font-style:italic;font-weight:bold"
   id="tspan9">Gene Set</tspan>:</tspan></text><text
       xml:space="preserve"
       style="font-size:3.33333px;font-family:sans-serif;-inkscape-font-specification:sans-serif;text-align:start;text-anchor:start;white-space:pre;inline-size:91.4617;display:inline;fill:none;stroke:#246be8;stroke-width:0.11811;stroke-linejoin:bevel;stroke-dasharray:none;stroke-dashoffset:177.638;stroke-opacity:1"
       x="-19.86293"
       y="54.123718"
       id="text2-2-5-2"
       transform="translate(109.34365,37.233186)"><tspan
         x="-19.86293"
         y="54.123718"
         id="tspan18"><tspan
           style="fill:#000000;stroke:none"
           id="tspan13">for </tspan><tspan
           style="font-style:italic;font-weight:bold;fill:#000000;stroke:none"
           id="tspan14">Cluster Markers</tspan><tspan
           style="fill:#000000;stroke:none"
           id="tspan15"> / </tspan><tspan
           style="font-style:italic;font-weight:bold;fill:#000000;stroke:none"
           id="tspan16">Co-Expression Networks</tspan><tspan
           style="fill:#000000;stroke:none"
           id="tspan17">:</tspan></tspan></text><g
       id="g1"
       transform="translate(1.0629899,-6.4574379)"><rect
         style="fill:none;fill-opacity:1;stroke:#246be8;stroke-width:0.708661;stroke-linejoin:bevel;stroke-dasharray:none;stroke-opacity:1"
         id="rect2-1"
         width="34.719727"
         height="12.914875"
         x="8.8133984"
         y="33.844997"
         ry="3.1414564" /><text
         xml:space="preserve"
         style="font-size:3.33333px;font-family:sans-serif;-inkscape-font-specification:sans-serif;fill:#000000;stroke-width:0.708663;stroke-linejoin:bevel"
         x="10.090108"
         y="41.497097"
         id="text2-0"><tspan
           id="tspan2-1"
           style="font-size:3.33333px;stroke-width:0.708661"
           x="10.090108"
           y="41.497097">Review Parameters</tspan></text><rect
         style="fill:none;fill-opacity:1;stroke:#246be8;stroke-width:0.708661;stroke-linejoin:bevel;stroke-dasharray:none;stroke-opacity:1"
         id="rect2-1-6"
         width="34.719727"
         height="12.914875"
         x="32.334286"
         y="63.339779"
         ry="3.1414564" /><text
         xml:space="preserve"
         style="font-size:3.33333px;font-family:sans-serif;-inkscape-font-specification:sans-serif;text-align:center;text-anchor:middle;fill:#000000;stroke-width:0.708663;stroke-linejoin:bevel"
         x="49.653458"
         y="68.954933"
         id="text2-0-5"><tspan
           id="tspan2-1-9"
           style="font-size:3.33333px;text-align:center;text-anchor:middle;stroke-width:0.708661"
           x="49.653458"
           y="68.954933">Box Plot</tspan><tspan
           style="font-size:3.33333px;text-align:center;text-anchor:middle;stroke-width:0.708661"
           x="49.653458"
           y="73.121597"
           id="tspan2">Waterfall Plot</tspan></text><g
         id="path2-7-8-7-8"><path
           style="color:#000000;fill:#246be8;stroke-linejoin:bevel;stroke-dashoffset:177.638;-inkscape-stroke:none"
           d="m 107.57031,69.443359 v 0.708985 h 5.59961 v -0.708985 z"
           id="path22" /><g
           id="g20"><path
             style="color:#000000;fill:#246be8;fill-rule:evenodd;-inkscape-stroke:none"
             d="m 106.50752,69.797227 c 0,-0.586771 0.47622,-1.062992 1.06299,-1.062992 0.58677,0 1.06299,0.476221 1.06299,1.062992 0,0.586771 -0.48897,1.062992 -1.06299,1.062992 -0.58677,0 -1.06299,-0.476221 -1.06299,-1.062992 z"
             id="path21" /><path
             style="color:#000000;fill:#246be8;fill-rule:evenodd;-inkscape-stroke:none"
             d="m 112.10608,69.797227 c 0,-0.586771 0.47622,-1.062992 1.06299,-1.062992 0.58677,0 1.06299,0.476221 1.06299,1.062992 0,0.586771 -0.48897,1.062992 -1.06299,1.062992 -0.58677,0 -1.06299,-0.476221 -1.06299,-1.062992 z"
             id="path20" /></g></g><rect
         style="fill:none;fill-opacity:1;stroke:#246be8;stroke-width:0.708661;stroke-linejoin:bevel;stroke-dasharray:none;stroke-opacity:1"
         id="rect2-1-6-1"
         width="34.719727"
         height="12.914875"
         x="72.850784"
         y="63.339783"
         ry="3.1414564" /><text
         xml:space="preserve"
         style="font-size:3.33333px;font-family:sans-serif;-inkscape-font-specification:sans-serif;fill:#000000;stroke-width:0.708663;stroke-linejoin:bevel"
         x="75.288155"
         y="70.72821"
         id="text2-0-5-4"><tspan
           id="tspan2-1-9-8"
           style="font-size:3.33333px;stroke-width:0.708661"
           x="75.288155"
           y="70.72821">Kaplan-Meier Plot</tspan></text><g
         id="path2-7-8-7-8-8"><path
           style="color:#000000;fill:#246be8;stroke-linejoin:bevel;stroke-dashoffset:177.638;-inkscape-stroke:none"
           d="M 149.72852,69.414062 V 70.125 h 5.62109 v -0.710938 z"
           id="path25" /><g
           id="g23"><path
             style="color:#000000;fill:#246be8;fill-rule:evenodd;-inkscape-stroke:none"
             d="m 148.661,69.769208 c 0,-0.589185 0.47818,-1.067364 1.06736,-1.067364 0.58918,0 1.06736,0.478179 1.06736,1.067364 0,0.589185 -0.49098,1.067364 -1.06736,1.067364 -0.58918,0 -1.06736,-0.478179 -1.06736,-1.067364 z"
             id="path24" /><path
             style="color:#000000;fill:#246be8;fill-rule:evenodd;-inkscape-stroke:none"
             d="m 154.28259,69.769208 c 0,-0.589185 0.47818,-1.067364 1.06736,-1.067364 0.58918,0 1.06736,0.478179 1.06736,1.067364 0,0.589185 -0.49098,1.067364 -1.06736,1.067364 -0.58918,0 -1.06736,-0.478179 -1.06736,-1.067364 z"
             id="path23" /></g></g><rect
         style="fill:none;fill-opacity:1;stroke:#246be8;stroke-width:0.711576;stroke-linejoin:bevel;stroke-dasharray:none;stroke-opacity:1"
         id="rect2-1-6-1-6"
         width="36.466839"
         height="12.967995"
         x="113.2552"
         y="63.285202"
         ry="3.1543777" /><text
         xml:space="preserve"
         style="font-size:3.34704px;font-family:sans-serif;-inkscape-font-specification:sans-serif;fill:#000000;stroke-width:0.711578;stroke-linejoin:bevel"
         x="131.40567"
         y="68.603127"
         id="text2-0-5-4-0"><tspan
           id="tspan2-1-9-8-4"
           style="font-size:3.34704px;text-align:center;text-anchor:middle;stroke-width:0.711576"
           x="131.40567"
           y="68.603127">Correlation with </tspan><tspan
           style="font-size:3.34704px;text-align:center;text-anchor:middle;stroke-width:0.711576"
           x="131.40567"
           y="72.786926"
           id="tspan3">Signature Cell Types</tspan></text><rect
         style="fill:none;fill-opacity:1;stroke:#246be8;stroke-width:0.708661;stroke-linejoin:bevel;stroke-dasharray:none;stroke-opacity:1"
         id="rect2-1-6-1-5"
         width="25.340714"
         height="12.914871"
         x="195.87337"
         y="63.339783"
         ry="3.1414564" /><text
         xml:space="preserve"
         style="font-size:3.33333px;font-family:sans-serif;-inkscape-font-specification:sans-serif;fill:#000000;stroke-width:0.708663;stroke-linejoin:bevel"
         x="200.03845"
         y="70.72821"
         id="text2-0-5-4-7"><tspan
           id="tspan2-1-9-8-7"
           style="font-size:3.33333px;stroke-width:0.708661"
           x="200.03845"
           y="70.72821">Forest Plot</tspan></text><g
         id="path2-7-8-7-8-4"><path
           style="color:#000000;fill:#246be8;stroke-linejoin:bevel;stroke-dashoffset:177.638;-inkscape-stroke:none"
           d="m 190.13086,69.443359 v 0.708985 h 5.59961 v -0.708985 z"
           id="path28" /><g
           id="g26"><path
             style="color:#000000;fill:#246be8;fill-rule:evenodd;-inkscape-stroke:none"
             d="m 189.0686,69.797228 c 0,-0.586771 0.47622,-1.062992 1.06299,-1.062992 0.58677,0 1.06299,0.476221 1.06299,1.062992 0,0.586771 -0.48897,1.062992 -1.06299,1.062992 -0.58677,0 -1.06299,-0.476221 -1.06299,-1.062992 z"
             id="path27" /><path
             style="color:#000000;fill:#246be8;fill-rule:evenodd;-inkscape-stroke:none"
             d="m 194.66716,69.797228 c 0,-0.586771 0.47622,-1.062992 1.06299,-1.062992 0.58677,0 1.06299,0.476221 1.06299,1.062992 0,0.586771 -0.48897,1.062992 -1.06299,1.062992 -0.58677,0 -1.06299,-0.476221 -1.06299,-1.062992 z"
             id="path26" /></g></g><rect
         style="fill:none;fill-opacity:1;stroke:#246be8;stroke-width:0.708661;stroke-linejoin:bevel;stroke-dasharray:none;stroke-opacity:1"
         id="rect2-1-6-1-4"
         width="34.719727"
         height="12.914875"
         x="155.41187"
         y="63.339783"
         ry="3.1414564" /><text
         xml:space="preserve"
         style="font-size:3.33333px;font-family:sans-serif;-inkscape-font-specification:sans-serif;fill:#000000;stroke-width:0.708663;stroke-linejoin:bevel"
         x="157.84924"
         y="70.72821"
         id="text2-0-5-4-70"><tspan
           id="tspan2-1-9-8-5"
           style="font-size:3.33333px;stroke-width:0.708661"
           x="157.84924"
           y="70.72821">Hazard-Ratio Plot</tspan></text></g><rect
       style="fill:#28a745;fill-opacity:1;stroke-width:0.708663;stroke-linejoin:bevel"
       id="rect3"
       width="117.27962"
       height="5.1983643"
       x="33.042946"
       y="47.975098"
       rx="1.352351"
       ry="1.2662747" /><rect
       style="fill:#ffc107;fill-opacity:1;stroke-width:0.708663;stroke-linejoin:bevel"
       id="rect3-1"
       width="108.66901"
       height="4.8683791"
       x="113.9624"
       y="79.238266"
       rx="1.352351"
       ry="1.2517352" /><rect
       style="fill:#ffc107;fill-opacity:1;stroke-width:0.708663;stroke-linejoin:bevel"
       id="rect3-1-8"
       width="66.51088"
       height="5.1081696"
       x="156.12053"
       y="47.975098"
       rx="1.352351"
       ry="0.75671142" /><rect
       style="fill:#28a745;fill-opacity:1;stroke-width:0.708663;stroke-linejoin:bevel"
       id="rect3-2"
       width="75.94487"
       height="4.9585738"
       x="33.228104"
       y="79.148071"
       rx="1.352351"
       ry="0.92567229" /><text
       xml:space="preserve"
       style="font-size:2.66667px;font-family:sans-serif;-inkscape-font-specification:sans-serif;text-align:center;text-anchor:middle;white-space:pre;inline-size:29.8101;display:inline;fill:#000000;fill-opacity:1;stroke-width:0.708663;stroke-linejoin:bevel"
       x="61.779751"
       y="74.173279"
       id="text4"
       transform="translate(-11.145857,-0.45250655)"><tspan
         x="61.779751"
         y="74.173279"
         id="tspan20"><tspan
           style="stroke-width:0.708661"
           id="tspan19">Display the Low/High</tspan><tspan
           y="74.173279"
           id="tspan21"> </tspan></tspan><tspan
         x="61.779751"
         y="77.506614"
         id="tspan23"><tspan
           style="stroke-width:0.708661"
           id="tspan22">risk group separation</tspan></tspan></text><text
       xml:space="preserve"
       style="font-size:2.66667px;font-family:sans-serif;-inkscape-font-specification:sans-serif;text-align:center;text-anchor:middle;white-space:pre;inline-size:36.3525;display:inline;fill:#000000;fill-opacity:1;stroke-width:0.708663;stroke-linejoin:bevel"
       x="61.779751"
       y="74.173279"
       id="text4-7"
       transform="translate(29.491592,-0.45250655)"><tspan
         x="61.779751"
         y="74.173279"
         id="tspan25"><tspan
           style="stroke-width:0.708661"
           id="tspan24">Compare the survival</tspan><tspan
           y="74.173279"
           id="tspan26"> </tspan></tspan><tspan
         x="61.779751"
         y="77.506614"
         id="tspan28"><tspan
           style="stroke-width:0.708661"
           id="tspan27">curve between groups.</tspan></tspan></text><text
       xml:space="preserve"
       style="font-size:2.66667px;font-family:sans-serif;-inkscape-font-specification:sans-serif;text-align:center;text-anchor:middle;white-space:pre;inline-size:47.5106;display:inline;fill:#000000;fill-opacity:1;stroke-width:0.708663;stroke-linejoin:bevel"
       x="117.80461"
       y="74.649803"
       id="text5"
       transform="translate(14.616718,-0.9290309)"><tspan
         x="117.80461"
         y="74.649803"
         id="tspan30"><tspan
           style="stroke-width:0.708661"
           id="tspan29">Display the correlation between</tspan><tspan
           y="74.649803"
           id="tspan31"> </tspan></tspan><tspan
         x="117.80461"
         y="77.983139"
         id="tspan33"><tspan
           style="stroke-width:0.708661"
           id="tspan32">groups and signaturescets</tspan></tspan></text><text
       xml:space="preserve"
       style="font-size:2.66667px;font-family:sans-serif;-inkscape-font-specification:sans-serif;text-align:center;text-anchor:middle;white-space:pre;inline-size:34.7787;display:inline;fill:#000000;fill-opacity:1;stroke-width:0.708663;stroke-linejoin:bevel"
       x="159.23776"
       y="74.649803"
       id="text6"
       transform="translate(14.467206,-0.87677018)"><tspan
         x="159.23776"
         y="74.649803"
         id="tspan35"><tspan
           style="stroke-width:0.708661"
           id="tspan34">Display the Hazard Ratio</tspan><tspan
           y="74.649803"
           id="tspan36"> </tspan></tspan><tspan
         x="159.23776"
         y="77.983139"
         id="tspan38"><tspan
           style="stroke-width:0.708661"
           id="tspan37">and  HR p-value</tspan><tspan
           y="77.983139"
           id="tspan39"> </tspan></tspan></text><text
       xml:space="preserve"
       style="font-size:2.66667px;font-family:sans-serif;-inkscape-font-specification:sans-serif;text-align:center;text-anchor:middle;white-space:pre;inline-size:34.7787;display:inline;fill:#000000;fill-opacity:1;stroke-width:0.708663;stroke-linejoin:bevel"
       x="159.23776"
       y="74.649803"
       id="text6-8"
       transform="translate(50.414332,-0.62872299)"><tspan
         x="159.23776"
         y="74.649803"
         id="tspan41"><tspan
           style="stroke-width:0.708661"
           id="tspan40">Display the HR</tspan><tspan
           y="74.649803"
           id="tspan42"> </tspan></tspan><tspan
         x="159.23776"
         y="77.983139"
         id="tspan45"><tspan
   style="stroke-width:0.708661"
   id="tspan43">distribution</tspan> <tspan
   style="stroke-width:0.708661"
   id="tspan44">and metadata</tspan></tspan></text><text
       xml:space="preserve"
       style="font-size:3.33333px;font-family:sans-serif;-inkscape-font-specification:sans-serif;text-align:center;text-anchor:middle;fill:#000000;fill-opacity:1;stroke-width:0.708663;stroke-linejoin:bevel"
       x="91.639626"
       y="51.815327"
       id="text10"><tspan
         id="tspan10"
         style="fill:#000000;fill-opacity:1;stroke-width:0.708661"
         x="91.639626"
         y="51.815327">Intra-dataset Results</tspan></text><text
       xml:space="preserve"
       style="font-size:3.33333px;font-family:sans-serif;-inkscape-font-specification:sans-serif;text-align:center;text-anchor:middle;fill:#000000;fill-opacity:1;stroke-width:0.708663;stroke-linejoin:bevel"
       x="71.15741"
       y="82.913506"
       id="text10-4"><tspan
         id="tspan10-8"
         style="fill:#000000;fill-opacity:1;stroke-width:0.708661"
         x="71.15741"
         y="82.913506">Intra-module/cluster Results</tspan></text><text
       xml:space="preserve"
       style="font-size:3.33333px;font-family:sans-serif;-inkscape-font-specification:sans-serif;text-align:center;text-anchor:middle;fill:#000000;fill-opacity:1;stroke-width:0.708663;stroke-linejoin:bevel"
       x="189.37596"
       y="51.770229"
       id="text10-7"><tspan
         id="tspan10-7"
         style="stroke-width:0.708661"
         x="189.37596"
         y="51.770229">Inter-dataset Results</tspan></text><text
       xml:space="preserve"
       style="font-size:3.33333px;font-family:sans-serif;-inkscape-font-specification:sans-serif;text-align:center;text-anchor:middle;fill:#000000;fill-opacity:1;stroke-width:0.708663;stroke-linejoin:bevel"
       x="169.32751"
       y="82.913506"
       id="text10-7-0"><tspan
         id="tspan10-7-5"
         style="stroke-width:0.708661"
         x="169.32751"
         y="82.913506">Inter-module/cluster Results</tspan></text></g></svg>
